<svg width="540" height="380" viewBox="0 0 540 380" fill="none" xmlns="http://www.w3.org/2000/svg">
    <path d="M440.304 229.682C440.304 229.682 409.377 254.423 423.109 310.624" stroke="#8D9DB5" stroke-width="2" stroke-linecap="round" stroke-linejoin="round"/>
    <path d="M428.894 296.606C428.502 296.267 428.199 295.838 428.01 295.356C427.821 294.874 427.752 294.353 427.808 293.838C430.025 273.587 439.156 252.736 453.394 245.09C468.03 237.227 478.015 259.056 457.727 279.306C442.458 294.564 434.306 297.05 431.192 297.343C430.776 297.38 430.356 297.333 429.959 297.204C429.562 297.075 429.195 296.867 428.88 296.592L428.894 296.606Z" fill="#D5DDE8"/>
    <path d="M414.488 309.996C414.488 309.996 410.092 294.096 396.73 292.943" stroke="#8D9DB5" stroke-width="2" stroke-linecap="round" stroke-linejoin="round"/>
    <path d="M465.271 246.891C465.271 246.891 439.658 272.55 429.41 295.859" stroke="#8D9DB5" stroke-width="2" stroke-linecap="round" stroke-linejoin="round"/>
    <path d="M460.726 274.729C460.726 274.729 450.199 274.38 438.855 279.323" stroke="#8D9DB5" stroke-width="2" stroke-linecap="round" stroke-linejoin="round"/>
    <path d="M448.452 249.426C448.452 249.426 435.632 272.403 436.582 282.277" stroke="#8D9DB5" stroke-width="2" stroke-linecap="round" stroke-linejoin="round"/>
    <path d="M447.882 287.277C447.882 287.277 438.277 286.928 432.023 290.807" stroke="#8D9DB5" stroke-width="2" stroke-linecap="round" stroke-linejoin="round"/>
    <path d="M410.806 278.08C409.709 278.838 408.463 278.971 407.475 278.43C388.373 267.92 372.26 248.305 372.002 227.126C371.737 205.361 398.743 200.794 408.487 234.518C415.82 259.897 414.074 271.307 412.758 275.399C412.415 276.482 411.73 277.424 410.806 278.084V278.08Z" fill="#D5DDE8"/>
    <path d="M409.575 278.712C409.575 278.712 401.796 225.67 379.434 213.583" stroke="#8D9DB5" stroke-width="2" stroke-linecap="round" stroke-linejoin="round"/>
    <path d="M373.113 230.394C378.001 232.597 395.458 240.75 402.092 248.054" stroke="#8D9DB5" stroke-width="2" stroke-linecap="round" stroke-linejoin="round"/>
    <path d="M407.376 234.263C408.074 241.738 408.772 254.758 405.672 258.839" stroke="#8D9DB5" stroke-width="2" stroke-linecap="round" stroke-linejoin="round"/>
    <path d="M406.712 266.946C406.712 266.946 389.503 261.046 381.766 254.785" stroke="#8D9DB5" stroke-width="2" stroke-linecap="round" stroke-linejoin="round"/>
    <path d="M398.895 287.542C399.294 284.605 398.841 282.119 397.884 281.989C396.927 281.859 395.827 284.135 395.429 287.072C395.03 290.008 395.483 292.494 396.44 292.624C397.398 292.754 398.497 290.479 398.895 287.542Z" fill="#D5DDE8"/>
    <path d="M396.41 292.603C396.978 291.915 395.747 289.961 393.66 288.239C391.573 286.518 389.421 285.681 388.853 286.369C388.285 287.058 389.516 289.012 391.603 290.733C393.69 292.455 395.842 293.292 396.41 292.603Z" fill="#D5DDE8"/>
    <path d="M401.955 291.571C404.558 290.207 406.302 288.401 405.85 287.539C405.398 286.676 402.921 287.083 400.318 288.447C397.715 289.812 395.972 291.617 396.424 292.479C396.876 293.342 399.353 292.935 401.955 291.571Z" fill="#D5DDE8"/>
    <path d="M392.906 296.342C395.273 295.044 396.843 293.356 396.413 292.571C395.983 291.787 393.715 292.203 391.348 293.501C388.981 294.799 387.411 296.487 387.841 297.272C388.272 298.056 390.539 297.64 392.906 296.342Z" fill="#D5DDE8"/>
    <path d="M400.504 301.582C401.312 301.213 401.053 298.909 399.925 296.435C398.797 293.961 397.226 292.255 396.418 292.624C395.609 292.993 395.868 295.297 396.996 297.771C398.125 300.245 399.695 301.951 400.504 301.582Z" fill="#D5DDE8"/>
    <path d="M444.436 226.953C446.387 223.546 446.625 220.014 444.966 219.065C443.308 218.115 440.382 220.107 438.431 223.514C436.48 226.921 436.243 230.452 437.901 231.402C439.559 232.352 442.485 230.36 444.436 226.953Z" fill="#D5DDE8"/>
    <path d="M444.553 234.731C448.443 234.652 451.566 233.026 451.526 231.098C451.487 229.17 448.302 227.671 444.411 227.75C440.521 227.828 437.399 229.455 437.438 231.383C437.477 233.311 440.662 234.81 444.553 234.731Z" fill="#D5DDE8"/>
    <path d="M437.41 231.483C438.782 230.464 438.2 227.36 436.111 224.549C434.022 221.739 431.217 220.286 429.846 221.305C428.475 222.324 429.057 225.429 431.145 228.24C433.234 231.05 436.039 232.502 437.41 231.483Z" fill="#D5DDE8"/>
    <path d="M439.968 237.049C441.398 233.844 441.295 230.683 439.738 229.988C438.181 229.294 435.76 231.329 434.331 234.534C432.901 237.739 433.004 240.9 434.561 241.595C436.118 242.289 438.539 240.254 439.968 237.049Z" fill="#D5DDE8"/>
    <path d="M435.02 234.172C438.14 233.836 440.533 232.311 440.367 230.766C440.2 229.221 437.537 228.24 434.417 228.576C431.298 228.913 428.905 230.438 429.071 231.983C429.238 233.528 431.901 234.508 435.02 234.172Z" fill="#D5DDE8"/>
    <path d="M451.751 313.48L438.833 372H397.791L384.873 313.48C384.133 310.135 386.221 306.846 389.087 306.846H447.534C450.404 306.853 452.478 310.135 451.751 313.48Z" fill="#D5DDE8"/>
    <path d="M91 306C91 302.686 93.6863 300 97 300H157C160.314 300 163 302.686 163 306V372H91V306Z" fill="#D5DDE8"/>
    <path d="M63 306C63 302.686 65.6863 300 69 300H129C132.314 300 135 302.686 135 306V372H63V306Z" fill="#E0EEF5"/>
    <rect opacity="0.32" x="69" y="306" width="17" height="6" rx="3" fill="#8D9DB5"/>
    <rect opacity="0.32" x="69" y="318" width="54" height="6" rx="3" fill="#8D9DB5"/>
    <rect opacity="0.32" x="69" y="327" width="18" height="6" rx="3" fill="#8D9DB5"/>
    <path d="M91 300H111V328.159C111 329.777 109.179 330.725 107.853 329.797L102.147 325.803C101.458 325.321 100.542 325.321 99.8531 325.803L94.1469 329.797C92.8214 330.725 91 329.777 91 328.159V300Z" fill="#8D9DB5"/>
    <path d="M22.7891 197.163C25.7382 195.221 29.9096 194.04 35.794 194.797C35.794 194.797 41.6066 175.91 59.5121 183.138C59.5121 183.138 66.9521 163.573 86.7187 172.195L88.1215 172.904C93.8694 176.773 96.2907 183.138 96.2907 183.138C114.196 175.91 120.002 194.797 120.002 194.797C138.139 192.465 140 208.54 140 208.54H26.2128C20.0761 208.54 17.6593 200.535 22.7891 197.163Z" fill="#E0EEF5"/>
    <path d="M73.7217 98.767C75.5421 97.5685 78.117 96.8397 81.7493 97.3065C81.7493 97.3065 85.3374 85.6484 96.3901 90.11C96.3901 90.11 100.983 78.0325 113.184 83.3546L114.05 83.7928C117.598 86.1811 119.093 90.11 119.093 90.11C130.146 85.6484 133.729 97.3065 133.729 97.3065C144.925 95.8675 146.074 105.79 146.074 105.79H75.835C72.047 105.79 70.5552 100.849 73.7217 98.767Z" fill="#E0EEF5"/>
    <g filter="url(#filter0_d)">
        <rect x="119" y="128" width="302" height="208" rx="8" fill="#639EC5"/>
        <rect x="120" y="129" width="300" height="206" rx="7" stroke="#003566" stroke-width="2"/>
    </g>
    <rect x="135" y="164" width="270" height="156" rx="4" fill="white"/>
    <path d="M368.147 209.67C368.091 209.613 367.994 209.645 367.981 209.723C367.972 209.781 368.015 209.833 368.073 209.836C368.162 209.841 368.21 209.733 368.147 209.67Z" fill="#F2F4F8"/>
    <path d="M375.19 232.352C376.196 231.561 377.909 232.084 377.909 233.364C377.909 251.941 362.85 267 344.273 267C325.696 267 310.637 251.941 310.637 233.364C310.637 221.778 316.495 211.56 325.41 205.511C326.111 205.035 327.034 205.607 327.034 206.455C327.034 217.833 336.258 227.057 347.637 227.057C347.673 227.057 347.709 227.057 347.745 227.057C347.785 227.057 347.82 227.085 347.829 227.124C348.626 230.695 351.814 233.364 355.625 233.364C358.118 233.364 360.813 233.48 363.162 234.317C364.486 234.789 365.912 235.046 367.398 235.046C370.339 235.046 373.045 234.039 375.19 232.352Z" fill="#F2F4F8"/>
    <path d="M361.934 205.614C361.934 212.58 356.287 218.227 349.321 218.227C342.354 218.227 336.707 212.58 336.707 205.614C336.707 198.648 342.354 193 349.321 193C356.287 193 361.934 198.648 361.934 205.614Z" fill="#F2F4F8"/>
    <path d="M369.923 223.273C369.923 226.06 367.664 228.318 364.877 228.318C362.091 228.318 359.832 226.06 359.832 223.273C359.832 220.486 362.091 218.228 364.877 218.228C367.664 218.228 369.923 220.486 369.923 223.273Z" fill="#F2F4F8"/>
    <circle opacity="0.32" cx="324.514" cy="231.262" r="5.04545" fill="#8D9DB5"/>
    <circle opacity="0.32" cx="335.444" cy="250.602" r="5.04545" fill="#8D9DB5"/>
    <circle opacity="0.32" cx="354.784" cy="244.296" r="5.04545" fill="#8D9DB5"/>
    <rect opacity="0.32" x="155" y="200" width="128" height="12" rx="6" fill="#8D9DB5"/>
    <rect opacity="0.32" x="155" y="224" width="128" height="6" rx="3" fill="#8D9DB5"/>
    <rect opacity="0.32" x="155" y="236" width="128" height="6" rx="3" fill="#8D9DB5"/>
    <rect opacity="0.32" x="155" y="248" width="101" height="6" rx="3" fill="#8D9DB5"/>
    <rect x="155" y="266" width="49" height="12" rx="4" fill="#FFC300"/>
    <ellipse cx="135" cy="143.812" rx="4" ry="3.95294" fill="white"/>
    <ellipse cx="151" cy="143.812" rx="4" ry="3.95294" fill="white"/>
    <ellipse cx="167" cy="143.812" rx="4" ry="3.95294" fill="white"/>
    <rect x="187" y="139.859" width="222" height="7.90588" rx="3.95294" fill="#EFF1F3"/>
    <rect x="250" y="340" width="40" height="24" fill="#639EC5"/>
    <path d="M210 372C210 367.582 213.582 364 218 364H322C326.418 364 330 367.582 330 372H210Z" fill="#003566"/>
    <circle opacity="0.32" cx="123" cy="360" r="6" fill="#8D9DB5"/>
    <rect x="24" y="372" width="492" height="8" rx="4" fill="#D5DDE8"/>
    <g filter="url(#filter1_d)">
        <mask id="path-54-inside-1" fill="white">
            <path fill-rule="evenodd" clip-rule="evenodd" d="M306.001 80C301.583 80 298.001 83.5817 298.001 88L298.001 170L283.246 186.704C278.684 191.868 282.351 200 289.242 200H306.001H308.501H460.001C464.42 200 468.001 196.418 468.001 192V88C468.001 83.5817 464.42 80 460.001 80H306.001Z"/>
        </mask>
        <path fill-rule="evenodd" clip-rule="evenodd" d="M306.001 80C301.583 80 298.001 83.5817 298.001 88L298.001 170L283.246 186.704C278.684 191.868 282.351 200 289.242 200H306.001H308.501H460.001C464.42 200 468.001 196.418 468.001 192V88C468.001 83.5817 464.42 80 460.001 80H306.001Z" fill="white"/>
        <path d="M298.001 88H296.001H298.001ZM298.001 170L299.5 171.324L300.001 170.757V170H298.001ZM283.246 186.704L284.745 188.028H284.745L283.246 186.704ZM300.001 88C300.001 84.6863 302.688 82 306.001 82V78C300.478 78 296.001 82.4772 296.001 88H300.001ZM300.001 170L300.001 88H296.001L296.001 170H300.001ZM284.745 188.028L299.5 171.324L296.502 168.676L281.747 185.38L284.745 188.028ZM289.242 198C284.074 198 281.324 191.901 284.745 188.028L281.747 185.38C276.045 191.835 280.628 202 289.242 202V198ZM306.001 198H289.242V202H306.001V198ZM308.501 198H306.001V202H308.501V198ZM460.001 198H308.501V202H460.001V198ZM466.001 192C466.001 195.314 463.315 198 460.001 198V202C465.524 202 470.001 197.523 470.001 192H466.001ZM466.001 88V192H470.001V88H466.001ZM460.001 82C463.315 82 466.001 84.6863 466.001 88H470.001C470.001 82.4772 465.524 78 460.001 78V82ZM306.001 82H460.001V78H306.001V82Z" fill="#003566" mask="url(#path-54-inside-1)"/>
    </g>
    <rect opacity="0.32" x="352" y="136" width="94" height="9" rx="4.5" fill="#8D9DB5"/>
    <rect opacity="0.32" x="352" y="164" width="94" height="9" rx="4.5" fill="#8D9DB5"/>
    <rect opacity="0.32" x="352" y="108" width="94" height="9" rx="4.5" fill="#8D9DB5"/>
    <path fill-rule="evenodd" clip-rule="evenodd" d="M332.004 102C326.484 102 322.004 106.48 322.004 112C322.004 117.52 326.484 122 332.004 122C337.524 122 342.004 117.52 342.004 112C342.004 106.48 337.524 102 332.004 102ZM330.006 117L325.006 112L326.416 110.59L330.006 114.17L337.596 106.58L339.006 108L330.006 117Z" fill="#59B989"/>
    <path fill-rule="evenodd" clip-rule="evenodd" d="M332.004 130C326.484 130 322.004 134.48 322.004 140C322.004 145.52 326.484 150 332.004 150C337.524 150 342.004 145.52 342.004 140C342.004 134.48 337.524 130 332.004 130ZM330.006 145L325.006 140L326.416 138.59L330.006 142.17L337.596 134.58L339.006 136L330.006 145Z" fill="#59B989"/>
    <path fill-rule="evenodd" clip-rule="evenodd" d="M332.004 158C326.484 158 322.004 162.48 322.004 168C322.004 173.52 326.484 178 332.004 178C337.524 178 342.004 173.52 342.004 168C342.004 162.48 337.524 158 332.004 158ZM330.006 173L325.006 168L326.416 166.59L330.006 170.17L337.596 162.58L339.006 164L330.006 173Z" fill="#59B989"/>
    <g filter="url(#filter2_d)">
        <circle cx="225.5" cy="212.5" r="34.5" fill="white"/>
        <circle cx="225.5" cy="212.5" r="33.5" stroke="#003566" stroke-width="2"/>
    </g>
    <rect x="240.366" y="242.445" width="12.1574" height="57.997" rx="6.07868" transform="rotate(-30 240.366 242.445)" fill="white" stroke="#003566" stroke-width="2"/>
    <g filter="url(#filter3_d)">
        <rect x="247.105" y="260.783" width="19.1337" height="47.4926" rx="9.56686" transform="rotate(-30 247.105 260.783)" fill="#FFC300"/>
        <rect x="248.471" y="261.149" width="17.1337" height="45.4926" rx="8.56686" transform="rotate(-30 248.471 261.149)" stroke="#003566" stroke-width="2"/>
    </g>
    <mask id="mask0" mask-type="alpha" maskUnits="userSpaceOnUse" x="197" y="184" width="57" height="57">
        <circle cx="225.5" cy="212.5" r="28" fill="white" stroke="#003566"/>
    </mask>
    <g mask="url(#mask0)">
        <rect x="157" y="198" width="140" height="20" rx="10" fill="#DAE0E7"/>
        <rect x="190" y="229" width="74" height="10" rx="5" fill="#DAE0E7"/>
    </g>
    <path fill-rule="evenodd" clip-rule="evenodd" d="M247.097 193.903C242.106 189.601 235.607 187 228.5 187C212.76 187 200 199.76 200 215.5C200 222.607 202.601 229.106 206.903 234.097C200.839 228.871 197 221.134 197 212.5C197 196.76 209.76 184 225.5 184C234.134 184 241.871 187.839 247.097 193.903Z" fill="#003566"/>
    <path opacity="0.24" fill-rule="evenodd" clip-rule="evenodd" d="M251.432 200.66C247.996 193.147 241.392 187.387 233.329 185.089L197.847 205.574C197.294 207.791 197 210.111 197 212.5C197 218.665 198.957 224.372 202.284 229.035L251.432 200.66ZM253.058 205.204L205.409 232.714C207.067 234.362 208.927 235.808 210.949 237.01L253.998 212.156C253.97 209.756 253.644 207.427 253.058 205.204Z" fill="#FFC300"/>
    <circle cx="225.5" cy="212.5" r="27.5" stroke="#003566" stroke-width="2"/>
    <defs>
        <filter id="filter0_d" x="119" y="128" width="306" height="212" filterUnits="userSpaceOnUse" color-interpolation-filters="sRGB">
            <feFlood flood-opacity="0" result="BackgroundImageFix"/>
            <feColorMatrix in="SourceAlpha" type="matrix" values="0 0 0 0 0 0 0 0 0 0 0 0 0 0 0 0 0 0 127 0" result="hardAlpha"/>
            <feOffset dx="4" dy="4"/>
            <feColorMatrix type="matrix" values="0 0 0 0 0 0 0 0 0 0.207843 0 0 0 0 0.4 0 0 0 1 0"/>
            <feBlend mode="normal" in2="BackgroundImageFix" result="effect1_dropShadow"/>
            <feBlend mode="normal" in="SourceGraphic" in2="effect1_dropShadow" result="shape"/>
        </filter>
        <filter id="filter1_d" x="281.227" y="80" width="190.775" height="124" filterUnits="userSpaceOnUse" color-interpolation-filters="sRGB">
            <feFlood flood-opacity="0" result="BackgroundImageFix"/>
            <feColorMatrix in="SourceAlpha" type="matrix" values="0 0 0 0 0 0 0 0 0 0 0 0 0 0 0 0 0 0 127 0" result="hardAlpha"/>
            <feOffset dx="4" dy="4"/>
            <feColorMatrix type="matrix" values="0 0 0 0 0 0 0 0 0 0.207843 0 0 0 0 0.4 0 0 0 1 0"/>
            <feBlend mode="normal" in2="BackgroundImageFix" result="effect1_dropShadow"/>
            <feBlend mode="normal" in="SourceGraphic" in2="effect1_dropShadow" result="shape"/>
        </filter>
        <filter id="filter2_d" x="191" y="178" width="73" height="73" filterUnits="userSpaceOnUse" color-interpolation-filters="sRGB">
            <feFlood flood-opacity="0" result="BackgroundImageFix"/>
            <feColorMatrix in="SourceAlpha" type="matrix" values="0 0 0 0 0 0 0 0 0 0 0 0 0 0 0 0 0 0 127 0" result="hardAlpha"/>
            <feOffset dx="4" dy="4"/>
            <feColorMatrix type="matrix" values="0 0 0 0 0 0 0 0 0 0.207843 0 0 0 0 0.4 0 0 0 1 0"/>
            <feBlend mode="normal" in2="BackgroundImageFix" result="effect1_dropShadow"/>
            <feBlend mode="normal" in="SourceGraphic" in2="effect1_dropShadow" result="shape"/>
        </filter>
        <filter id="filter3_d" x="250.605" y="254.717" width="37.3164" height="47.6964" filterUnits="userSpaceOnUse" color-interpolation-filters="sRGB">
            <feFlood flood-opacity="0" result="BackgroundImageFix"/>
            <feColorMatrix in="SourceAlpha" type="matrix" values="0 0 0 0 0 0 0 0 0 0 0 0 0 0 0 0 0 0 127 0" result="hardAlpha"/>
            <feOffset dx="4" dy="4"/>
            <feColorMatrix type="matrix" values="0 0 0 0 0 0 0 0 0 0.207843 0 0 0 0 0.4 0 0 0 1 0"/>
            <feBlend mode="normal" in2="BackgroundImageFix" result="effect1_dropShadow"/>
            <feBlend mode="normal" in="SourceGraphic" in2="effect1_dropShadow" result="shape"/>
        </filter>
    </defs>
</svg>
